<svg width="255" height="305" viewBox="0 0 255 305" fill="none" xmlns="http://www.w3.org/2000/svg">
<rect id="Rectangle 7" x="126.356" y="156.5" width="3" height="67" rx="1.5" fill="#5B21B6" stroke="#8B5CF6"/>
<rect id="Rectangle 8" x="190.34" y="73.7044" width="2.5" height="99" rx="1.25" transform="rotate(40 190.34 73.7044)" fill="#5B21B6" stroke="#8B5CF6"/>
<g id="foot">
<rect id="Rectangle 1" x="60.7346" y="265.91" width="17.7034" height="34.4885" rx="8.8517" transform="rotate(20 60.7346 265.91)" fill="#5B21B6" stroke="#8B5CF6"/>
<rect id="Rectangle 1_2" x="171.326" y="273.821" width="17.7034" height="34.4885" rx="8.8517" transform="rotate(-20 171.326 273.821)" fill="#5B21B6" stroke="#8B5CF6"/>
</g>
<g id="Group 2">
<circle id="Ellipse 3" cx="127.5" cy="151.5" r="119.48" stroke="#8B5CF6" stroke-width="3"/>
<circle id="Ellipse 2" cx="127.5" cy="151.5" r="126.617" stroke="black"/>
</g>
<g id="ring">
<g id="Ellipse 4">
<mask id="path-7-inside-1_58_2" fill="white">
<path d="M227.89 54.7665C232.901 46.7934 234.54 37.1561 232.445 27.9748C230.351 18.7934 224.695 10.8201 216.722 5.80889C208.749 0.797652 199.111 -0.84102 189.93 1.25336C180.749 3.34774 172.775 9.00361 167.764 16.9767L197.827 35.8716L227.89 54.7665Z"/>
</mask>
<path d="M227.89 54.7665C232.901 46.7934 234.54 37.1561 232.445 27.9748C230.351 18.7934 224.695 10.8201 216.722 5.80889C208.749 0.797652 199.111 -0.84102 189.93 1.25336C180.749 3.34774 172.775 9.00361 167.764 16.9767L197.827 35.8716L227.89 54.7665Z" fill="#5B21B6" stroke="#8B5CF6" stroke-width="2" mask="url(#path-7-inside-1_58_2)"/>
</g>
<g id="Ellipse 4_2">
<mask id="path-8-inside-2_58_2" fill="white">
<path d="M89.5986 18.2562C84.5873 10.2831 76.614 4.62723 67.4327 2.53286C58.2514 0.438488 48.6141 2.07717 40.641 7.0884C32.6679 12.0996 27.012 20.0729 24.9176 29.2543C22.8232 38.4356 24.4619 48.0729 29.4731 56.046L59.5358 37.1511L89.5986 18.2562Z"/>
</mask>
<path d="M89.5986 18.2562C84.5873 10.2831 76.614 4.62723 67.4327 2.53286C58.2514 0.438488 48.6141 2.07717 40.641 7.0884C32.6679 12.0996 27.012 20.0729 24.9176 29.2543C22.8232 38.4356 24.4619 48.0729 29.4731 56.046L59.5358 37.1511L89.5986 18.2562Z" fill="#5B21B6" stroke="#8B5CF6" stroke-width="2" mask="url(#path-8-inside-2_58_2)"/>
</g>
</g>
<circle id="Ellipse 5" cx="127.356" cy="150.5" r="7.5" fill="black"/>
</svg>
